<?xml version="1.0" standalone="no"?>
<!DOCTYPE svg PUBLIC "-//W3C//DTD SVG 1.1//EN" "http://www.w3.org/Graphics/SVG/1.1/DTD/svg11.dtd" >
<svg>
<metadata>
Created by FontForge 20090914 at Fri Feb 24 05:12:28 2012
 By root
Generated by Metamorphosis Professional 2.0
</metadata>
<defs>
<font id="RichardMurray" horiz-adv-x="210" >
  <font-face 
    font-family="RichardMurray"
    font-weight="400"
    font-stretch="normal"
    units-per-em="1000"
    panose-1="2 0 5 5 3 0 0 2 0 3"
    ascent="800"
    descent="-200"
    x-height="334"
    cap-height="604"
    bbox="-69 -329 1015 667"
    underline-thickness="20"
    underline-position="-212"
    unicode-range="U+0020-U+00F3"
  />
<missing-glyph horiz-adv-x="667" 
d="M41 667h585v-667h-585v667zM585 626h-503v-585h503v585z" />
    <glyph glyph-name=".notdef" horiz-adv-x="667" 
d="M41 667h585v-667h-585v667zM585 626h-503v-585h503v585z" />
    <glyph glyph-name=".null" horiz-adv-x="0" 
 />
    <glyph glyph-name="nonmarkingreturn" horiz-adv-x="500" 
 />
    <glyph glyph-name="space" unicode=" " horiz-adv-x="500" 
 />
    <glyph glyph-name="exclam" unicode="!" 
d="M119 -53q-23 0 -38 16q-13 16 -13 36q0 21 12.5 35.5t38.5 14.5q24 0 37.5 -16t13.5 -36q0 -21 -12.5 -35.5t-38.5 -14.5zM96 580q3 18 14 27t27 11q21 0 36 -18.5t15 -55.5v-12l-37 -155q-15 -74 -15 -146v-34q0 -15 1 -27l7 -54q0 -13 -8.5 -18.5t-21.5 -5.5
q-27 0 -35 46.5t-8 139.5l7 147z" />
    <glyph glyph-name="quotedbl" unicode="&#x22;" horiz-adv-x="344" 
d="M108 520q-8 0 -22 32q-12 31 -12 60q0 18 6.5 29t23.5 11q16 0 25 -17t9 -43q0 -13 -2.5 -26t-6.5 -23t-9.5 -16.5t-11.5 -6.5zM236 520q-8 0 -22 32q-12 31 -12 60q0 18 6.5 29t23.5 11q16 0 25 -17t9 -43q0 -13 -2.5 -26t-6.5 -23t-9.5 -16.5t-11.5 -6.5z" />
    <glyph glyph-name="dollar" unicode="$" horiz-adv-x="536" 
d="M196 584q0 9 9 17q9 6 22 7q13 0 18 -8q7 -7 7 -24l-5 -113l-4 -93l4 -265l5 -181q0 -9 -8.5 -12.5t-23.5 -5.5q-13 0 -23 5q-9 3 -9 13zM326 369q6 21 6 39q0 46 -29 72.5t-69 26.5q-39 0 -70 -28.5t-40 -74.5q-6 -42 -6 -70q0 -95 78 -131l146 -37q79 -22 79 -93
q0 -52 -63 -82q-62 -30 -147 -30q-76 0 -129 22q-55 21 -59 37q-5 17 -8.5 34t-3.5 20q0 12 8 14q8 0 19 -11q11 -9 21 -28q10 -18 47 -29q37 -9 83 -9q62 0 109 15q48 15 48 42q0 59 -100 81q-101 23 -152 58q-52 37 -52 181q0 51 55 124q56 74 122 74q19 0 37 -6
q10 -2 25 -11t35 -23q42 -28 61 -71t19 -115q0 -38 -10.5 -56t-27.5 -20q-10 1 -17 7t-11.5 14t-6 17t-1.5 17v12q0 6 4 18z" />
    <glyph glyph-name="ampersand" unicode="&#x26;" horiz-adv-x="520" 
d="M311 383l1 13q0 24 -6.5 45t-17 36t-25.5 24t-31 9q-23 0 -44.5 -18.5t-37.5 -52.5q-15 -33 -21 -60t-6 -52q0 -47 23 -76.5t52 -29.5h74q13 0 21 -8q8 -6 8 -18q-3 -16 -13.5 -22.5t-24.5 -5.5h-74q-26 0 -45 -14t-36 -37q-14 -23 -14 -42q0 -36 46 -58q45 -22 106 -22
q24 0 46 4.5t38.5 13.5t26 22.5t9.5 31.5q0 43 -46 52q-45 11 -51 26q-6 25 55 25l26 -1h26q53 0 74 -8q22 -6 22 -19q0 -9 -11.5 -17.5t-26.5 -8.5q-7 0 -16 -33q-8 -35 -22 -59q-12 -25 -55 -42t-100 -17q-85 0 -154 34q-70 33 -70 85q0 25 20 52.5t48 45.5q30 19 33 22
q3 2 6 5l5 5l-12 9q-8 5 -25 24q-12 16 -21.5 46.5t-9.5 62.5q0 79 41 141q40 63 103 63q41 0 88 -34q25 -17 42.5 -30t28.5 -23q22 -19 22 -124q0 -20 -12.5 -32.5t-30.5 -12.5q-15 0 -24.5 11t-9.5 36l1 18z" />
    <glyph glyph-name="quotesingle" unicode="'" horiz-adv-x="228" 
d="M108 520q-8 0 -22 32q-12 31 -12 60q0 18 6.5 29t23.5 11q16 0 25 -17t9 -43q0 -13 -2.5 -26t-6.5 -23t-9.5 -16.5t-11.5 -6.5z" />
    <glyph glyph-name="parenleft" unicode="(" horiz-adv-x="384" 
d="M224 624q4 9 18 14.5t21 6.5q10 2 18 2q25 0 26 -13l-7 -12l-9 -15t-14 -24l-23 -39q-29 -47 -57 -135q-14 -45 -23.5 -82.5t-14.5 -69.5q-10 -59 -10 -123q0 -51 5 -102t15 -104q21 -105 63 -244q3 -10 -14 -10q-11 0 -19 4q-9 3 -37 82q-28 81 -51 194
q-11 57 -17 110.5t-6 104.5q0 117 33 224q35 109 103 231z" />
    <glyph glyph-name="parenright" unicode=")" horiz-adv-x="384" 
d="M177 -306q-4 -10 -22 -16.5t-36 -6.5q-24 0 -25 13q6 10 16.5 29.5t37.5 64.5q28 43 66 164q38 120 38 243q0 96 -15 175.5t-31 142.5q-8 32 -17 64.5t-20 66.5q-3 10 14 10q11 0 18 -4q9 -3 37 -82q29 -81 51 -194q24 -114 24 -215q0 -119 -34 -224q-33 -107 -102 -231z
" />
    <glyph glyph-name="asterisk" unicode="*" horiz-adv-x="486" 
d="M297 635q0 9 15 9q11 0 21 -5t9 -12q-33 -57 -33 -69h17q13 6 53 34q9 6 18 -10q9 -15 2 -18q-80 -18 -80 -31q0 -10 76 -41l-5 -17q-13 -13 -23 -7q-52 49 -62 49t-10 -50v-15q0 -7 -13 -7q-12 0 -21 4t-6 11l17.5 40t7.5 20q-8 0 -15 3l-50 -23q-5 -2 -9 5.5t-4 15.5
q0 6 33 9q35 5 36 10l-26 20t-46 32q-5 2 -4 6.5t11 15.5q10 12 17 6q48 -57 62 -59q12 0 12 74z" />
    <glyph glyph-name="comma" unicode="," 
d="M79 -70q1 12 3 19t4.5 12.5t5.5 10l7 10.5q0 8 -22 18q-20 11 -28 21q-6 9 -6 22q0 9 4.5 18.5t11 17t15 12t17.5 4.5q5 1 14.5 -3t18.5 -12t15 -20t6 -27q0 -47 -45 -93l-21 -10v0z" />
    <glyph glyph-name="hyphen" unicode="-" horiz-adv-x="692" 
d="M262 306h98l119 2q15 0 15 -26q0 -25 -15 -26h-290q-6 0 -11 8q-1 3 -2 8t-2 12q0 27 15 24z" />
    <glyph glyph-name="period" unicode="." 
d="M103 -9q-23 0 -38 15q-13 16 -13 37t12.5 35.5t38.5 14.5q24 0 37.5 -16t13.5 -36q0 -22 -12.5 -36t-38.5 -14z" />
    <glyph glyph-name="zero" unicode="0" horiz-adv-x="508" 
d="M260 568q46 -11 84 -21q20 -5 42 -43q24 -37 42 -106q19 -66 19 -136q0 -126 -58 -214t-165 -88q-98 0 -148 83t-50 203q0 129 53 230t136 101q21 0 45 -9zM256 524q-4 1 -9 2t-12 2q-51 0 -97 -105q-46 -102 -46 -216q0 -87 32 -141t100 -54q81 0 117.5 51t36.5 145
q0 58 -9.5 117.5t-24.5 110.5q-12 51 -20 56q-8 7 -68 32z" />
    <glyph glyph-name="one" unicode="1" horiz-adv-x="238" 
d="M47 317q0 23 -15 43l-33 35q3 6 6 10t16 17q13 14 24 39t11 81q1 8 7 14.5t13.5 11t15 6.5t12.5 1q20 0 23.5 -12t3.5 -26q-5 -26 -8.5 -65t-3.5 -82l-2 -230v-132q0 -16 -9.5 -23t-26.5 -9q-30 0 -34 32v289v0z" />
    <glyph glyph-name="two" unicode="2" horiz-adv-x="397" 
d="M331 406q0 -103 -80 -180l-174 -133q0 -8 30 -26q31 -16 55 -16l75 13q39 6 90 6q16 0 23 -7t9 -23q0 -13 -8 -23.5t-24 -11.5q-23 0 -38.5 -0.5t-25.5 -1.5l-54 -6l-126 -18q-32 0 -48.5 13.5t-25.5 54.5q-6 30 55 84l123 108q67 70 67 132l-7 49q-3 21 -10 40
t-16.5 33.5t-22 23t-25.5 8.5q-34 0 -66 -50q-31 -49 -31 -104q0 -16 2 -26l2 -21q0 -19 -8 -32.5t-21 -14.5q-24 0 -36 56l-3 35q0 80 63 142q65 62 135 62q54 0 87.5 -40.5t33.5 -125.5z" />
    <glyph glyph-name="three" unicode="3" horiz-adv-x="453" 
d="M36 315q0 104 18 145t62 71t67.5 37t37.5 7q56 0 91 -59t35 -135q0 -29 -5.5 -54t-14.5 -43.5t-20.5 -31.5t-22.5 -18l-13 -7l13 -10.5t22 -16.5q38 -21 57 -52q21 -29 21 -56q0 -51 -69 -88q-67 -37 -150 -37q-51 0 -88.5 15.5t-53.5 44.5q-14 31 -14 52q0 17 11 17
q6 0 14.5 -5.5t25.5 -23.5q15 -17 37 -25q20 -7 32 -9t31 -2q58 0 103 22q48 22 48 53q0 17 -24 37q-22 17 -77 34l-14 2l-28 -1l-37 -1q-28 0 -28 22q0 13 10 23t28 12q31 0 38 4q8 5 30 5q28 0 51 33q22 34 22 82q0 29 -9 56t-23 47.5t-30.5 32t-31.5 9.5q-33 0 -58 -37
q-23 -38 -23 -93q0 -17 2 -27l2 -16v-10q0 -24 -9 -35t-26 -13q-14 0 -27 12t-13 31z" />
    <glyph glyph-name="four" unicode="4" horiz-adv-x="472" 
d="M75 111q-33 0 -48 24.5t-15 61.5q0 22 6 44t15 34l200 245l45 46q18 15 32 15q23 0 40 -33q15 -33 15 -59l-3 -93l-2 -86v-39l3 -45q3 -28 9.5 -34t22.5 -5t27 -9q11 -9 11 -27q0 -14 -8 -24t-25 -12q-25 0 -32 -2t-8 -15v-89q0 -20 -12 -30q-12 -9 -28 -10
q-15 0 -27.5 9.5t-12.5 26.5v93q0 13 -17 13h-19h-169zM77 264q-9 -14 -9 -33q0 -22 11 -36t33 -14h139q21 0 27 7.5t8 24.5l-1 19v211q0 20 -3.5 37t-13.5 17q-7 0 -15 -11z" />
    <glyph glyph-name="five" unicode="5" horiz-adv-x="476" 
d="M177 481q-27 0 -46 -10t-19 -32l1 -65l1 -51l-1 -24l-1 -19q0 -15 6 -30q7 -11 17 -7q36 21 92 21q47 0 91 -16q46 -15 65 -36q20 -22 26 -39q7 -17 9 -27t2 -23q0 -65 -58 -120q-59 -56 -135 -56q-57 0 -115 34q-58 35 -75 61l-25 39.5l-10 16.5q0 10 6.5 18t17.5 8
q9 0 18.5 -6.5t28.5 -38.5q20 -30 56 -51.5t76 -21.5q51 0 89 30q38 32 38 76q0 26 -29 67t-84 41q-8 0 -18 -1t-22 -4q-11 -2 -18.5 -3.5t-22.5 -7.5q-18 -5 -32.5 -15t-24.5 -12q-9 0 -14.5 17.5t-5.5 57.5l4 262q0 19 14 30.5t33 11.5h257q39 0 41 -32q0 -23 -18 -33
t-37 -10h-178z" />
    <glyph glyph-name="six" unicode="6" horiz-adv-x="439" 
d="M145 560q6 9 20 15.5t27 6.5q37 0 37 -27q0 -13 -33 -55q-16 -21 -30 -43.5t-25 -45.5l-35 -72q-12 -29 -12 -34l11 -1l35 23q60 20 105 20q36 0 63 -11.5t46 -31.5t28.5 -47t9.5 -59q0 -43 -17 -86.5t-48 -76.5t-64.5 -48t-73.5 -15q-75 0 -130 54t-55 157
q0 75 32.5 167t108.5 210zM98 219q-10 -31 -10 -60q0 -57 36 -97q36 -39 85 -39q29 0 57 18t43 60q16 42 16 78q0 26 -9 46t-25 34t-36.5 21t-44.5 7q-38 0 -71 -18q-29 -18 -41 -50z" />
    <glyph glyph-name="seven" unicode="7" horiz-adv-x="355" 
d="M168 37q0 -43 -7 -61t-22 -20q-16 0 -33 26t-17 51q0 105 56 215l122 207q0 20 -38 20t-105 -14q-65 -14 -71 -14q-8 0 -16.5 4t-16 10t-12.5 13t-5 13q0 8 8 16q9 7 53 21q23 8 43.5 13t39.5 9q38 7 62 10.5t41 3.5q20 0 33 -3t26 -13t13 -38q0 -36 -53 -153l-77 -179
q-24 -62 -24 -137z" />
    <glyph glyph-name="eight" unicode="8" horiz-adv-x="496" 
d="M419 491q15 -37 10 -44q-10 -7 -53 -72q-44 -65 -78 -87t-34 -32q0 -5 90 -48q90 -44 90 -110q0 -71 -69 -108q-68 -37 -160 -37q-83 0 -147 34q-63 33 -63 102q0 48 64 85t66 49q0 12 -15 21q-8 5 -19.5 19.5t-27.5 39.5q-32 50 -32 100q0 77 78 125q41 24 62 30
q45 13 68 13q56 0 105 -35q20 -13 32 -20l20 -12zM364 448q-23 33 -52 48t-60 15q-29 0 -54 -11.5t-36 -26.5q-10 -14 -21 -44q-3 -13 -5 -26t-2 -28q0 -38 17 -65t48 -27q7 0 19.5 3t42.5 14q30 12 69 73t34 75zM201 201q-55 -27 -81.5 -58.5t-26.5 -60.5q0 -36 36 -61
q36 -24 91 -24q24 0 40 3.5l39 8.5q9 3 19.5 8.5t19 14t14 20.5t5.5 28q0 24 -18 46.5t-44 32.5q-12 6 -20.5 9.5t-16 7l-15 7t-17.5 9.5q-18 12 -25 9z" />
    <glyph glyph-name="nine" unicode="9" horiz-adv-x="492" 
d="M283 -33q-6 -9 -20 -15.5t-27 -6.5q-37 0 -37 27q0 15 29 53l25 34.5t18 27.5l30 59q7 17 11 28t5 16q-6 0 -12 3l-38 -20q-18 -3 -34.5 -5t-34.5 -2q-44 0 -78 12t-57 33.5t-35 51t-12 64.5q0 98 60 154q63 56 102 74q39 19 81 19q70 0 118 -57t48 -156
q0 -82 -33.5 -178t-108.5 -216zM337 338q3 15 3 38q0 60 -34 97q-35 38 -82 38q-32 0 -60 -15.5t-57 -60.5q-29 -44 -29 -90q0 -53 41 -91q42 -36 95 -36q38 0 69 22t46 68z" />
    <glyph glyph-name="colon" unicode=":" 
d="M103 271q-23 0 -38 15q-13 16 -13 37q0 22 12.5 36.5t38.5 14.5q24 0 37.5 -16t13.5 -36q0 -21 -12.5 -36t-38.5 -15zM103 -9q-23 0 -38 15q-13 16 -13 37t12.5 35.5t38.5 14.5q24 0 37.5 -16t13.5 -36q0 -22 -12.5 -36t-38.5 -14z" />
    <glyph glyph-name="semicolon" unicode=";" 
d="M79 -70q1 12 3 19t4.5 12.5t5.5 10l7 10.5q0 8 -22 18q-20 11 -28 21q-6 9 -6 22q0 9 4.5 18.5t11 17t15 12t17.5 4.5q5 1 14.5 -3t18.5 -12t15 -20t6 -27q0 -47 -45 -93zM103 271q-23 0 -38 15q-13 16 -13 37q0 22 12.5 36.5t38.5 14.5q24 0 37.5 -16t13.5 -36
q0 -21 -12.5 -36t-38.5 -15z" />
    <glyph glyph-name="question" unicode="?" horiz-adv-x="376" 
d="M103 -9q-23 0 -38 15q-13 16 -13 37t12.5 35.5t38.5 14.5q24 0 37.5 -16t13.5 -36q0 -22 -12.5 -36t-38.5 -14zM331 438q0 -86 -42 -120t-116 -63q-13 -6 -22 -11t-15 -12t-8.5 -17t-2.5 -25l1 -19l1 -13q0 -31 -24 -32q-13 0 -22 8.5t-9 20.5q2 8 4 13t4 22l-1 23
q0 12 3 20.5t12 19.5q11 11 85 39q76 28 76 95q0 9 -1.5 24.5t-5.5 37.5q-6 46 -28 76q-20 32 -47 32q-34 0 -66 -50q-31 -49 -31 -104q0 -16 2 -26l2 -21q0 -19 -8 -32.5t-21 -14.5q-24 0 -36 56l-3 35q0 80 63 142q65 62 135 62q54 0 87.5 -40.5t33.5 -125.5z" />
    <glyph glyph-name="A" unicode="A" horiz-adv-x="793" 
d="M419 120q4 7 5 18q0 12 -25 24q-25 13 -23 25q5 17 46 17t61 45l31 82l37 118l34 106q9 19 18 28.5t17.5 13t16 4t14.5 2.5q40 0 40 -34q0 -8 -9.5 -38t-15.5 -69l-5 -80l1 -71l2 -50q0 -42 43 -51t45 -15q0 -15 -10 -22q-9 -4 -25 -5q-18 0 -21 1q-7 0 -8 -4
q0 -85 9 -116t34 -49q25 -16 25 -26q0 -5 -11 -7q-27 0 -68 38q-38 39 -51 90q-13 52 -29 65t-37 13q-26 0 -49 -16q-25 -17 -56 -83q-31 -65 -110 -122q-76 -55 -161 -55q-89 0 -151 52q-62 51 -62 129q0 29 11 61t30 59t29 27q5 -5 5 -9q0 -15 -17 -49q-16 -33 -16 -73
q0 -61 48 -101q47 -40 116 -40q70 0 133.5 40t108.5 127zM547 363l-10 -34l-9.5 -32t-8.5 -26.5t-7 -17.5l-3 -18q0 -25 32 -25q22 0 42.5 14t20.5 36l-3 16l-4 51l-2 72v56v39z" />
    <glyph glyph-name="B" unicode="B" horiz-adv-x="770" 
d="M215 136q-122 0 -189 51q-66 51 -66 128q0 101 103 183t273 82h188q67 0 146 -64t79 -142q0 -41 -23 -79q-21 -38 -63 -66q-41 -29 -41 -49q0 -16 30 -32q32 -17 49 -38q18 -23 18 -48q0 -53 -68 -97q-67 -43 -147 -43q-59 0 -93 22q-17 10 -38 16.5t-46 8.5
q-48 0 -48 35l48 484q0 20 -15 26t-57 6q-102 0 -176 -64q-75 -65 -75 -140q0 -58 55.5 -97t171.5 -39q23 0 28 -22q0 -22 -44 -22zM384 248q0 -22 21 -35t55 -13q74 0 138 46q66 46 66 126q0 61 -68 108t-134 47q-31 0 -48.5 -12.5t-17.5 -38.5zM442 -38q36 0 68 4t57 12
t40.5 20t18.5 29l6 39q0 45 -46 69q-45 24 -105 24q-49 0 -81 -12.5t-32 -34.5q0 -72 21 -111t53 -39z" />
    <glyph glyph-name="C" unicode="C" horiz-adv-x="550" 
d="M392 288q20 57 20 107q0 70 -32 117t-79 47q-64 0 -123 -98q-57 -97 -72 -215l-13 -138q0 -101 55 -150q55 -51 133 -51q70 0 122 37q53 36 53 92q0 12 11.5 27t22.5 16q18 0 18 -51q0 -69 -71 -117q-70 -49 -164 -49q-110 0 -187 73q-78 72 -78 225q0 187 83 318
q84 131 181 131q26 0 91 -28q67 -28 104 -82q37 -53 37 -179q0 -37 -22.5 -56.5t-50.5 -19.5q-18 0 -30 8.5t-12 22.5l3 13v0z" />
    <glyph glyph-name="D" unicode="D" horiz-adv-x="832" 
d="M215 144q-126 0 -186.5 44t-60.5 114q0 108 124 205t304 97q201 0 298 -95q97 -94 97 -234q0 -137 -84 -249q-83 -113 -196 -113q-22 0 -39 3.5t-31 8t-25.5 9.5t-22.5 8l-22 4l-22 4q-42 0 -42 50v52q0 22 1 34t3 29t4 39l27 205l19 140q0 19 -7 28t-30 9h-9
q-135 -14 -213 -83q-79 -70 -79 -147q0 -48 27 -73q28 -25 52 -32q27 -8 63 -8h15l24 2l27 3q38 0 38 -20q0 -10 -16 -23q-17 -11 -38 -11zM420 -4q47 -32 98 -32q89 0 124 69q35 71 42 107q9 37 13 66.5t4 50.5q0 118 -72 192q-71 74 -144 74q-57 0 -64 -72l-16 -153
l-14 -135l-5 -88q0 -36 7 -50q5 -14 27 -29z" />
    <glyph glyph-name="E" unicode="E" horiz-adv-x="647" 
d="M459 340q3 22 3 44q0 63 -25.5 101t-76.5 38q-29 0 -62.5 -14t-73.5 -45t-60 -66.5t-20 -66.5q0 -54 45 -94q47 -41 106 -41l156 -4q14 0 22 -8q9 -6 9 -17q0 -23 -35 -23l-61 1l-52 1q-20 0 -80 -15t-109 -46q-48 -32 -48 -60q0 -36 72 -64q71 -28 161 -28q78 0 135 24
q58 24 69 63q12 40 20.5 52.5t18.5 12.5q9 0 15.5 -11.5t8.5 -29.5l-12 -50q-12 -45 -89 -86q-76 -40 -176 -40q-122 0 -223 49q-102 48 -102 110q0 34 37.5 67t95.5 52t60 29q-1 2 -3 5t-7 6l-44 22q-34 17 -54 50.5t-20 71.5q0 90 84 179q84 90 166 90q27 0 53 -15
l124 -59q63 -42 63 -154l-3 -51q0 -17 -16 -32q-15 -12 -34 -12q-15 0 -28 12q-11 14 -11 36l1 16v0z" />
    <glyph glyph-name="F" unicode="F" horiz-adv-x="760" 
d="M563 391l-2 -37q0 -22 6 -62l7 -56q0 -23 15.5 -31.5t40.5 -8.5l32 1q17 0 24 -3.5t8 -17.5q0 -23 -56 -34q-56 -9 -56 -34q0 -111 -61 -163t-153 -52q-93 0 -172 47q-78 46 -78 108q0 29 23 58t40 29q21 0 21 -26q0 -8 -16 -24t-16 -45q0 -39 49 -69t112 -30
q68 0 115 42q48 40 48 129q0 14 -14 20q-9 2 -17 3t-26 1h-12q-28 0 -39.5 3.5t-11.5 20.5q0 20 60 28q60 7 60 36l-2 48l-2 42q0 27 3 41t7 26q4 13 11.5 29.5t9.5 33.5q0 18 -14 30.5t-55 26.5q-18 6 -38.5 10.5t-40.5 8t-38.5 6l-33.5 4.5q-29 3 -50 3q-115 0 -179 -49
q-65 -48 -65 -111q0 -47 37 -80q38 -31 109 -31h15h11q10 2 12 2q14 0 50 9q37 9 60 9q31 0 32 -16q0 -8 -6.5 -16t-18 -14.5t-26 -11t-29.5 -4.5q-144 0 -217 52t-73 129q0 81 76 144t201 63q31 0 63.5 -4.5t63 -12t58.5 -17t51 -20.5q44 -22 60 -22q24 0 56 24
q31 25 69 39q37 15 68 15q25 0 41.5 -12.5t16.5 -28.5q0 -29 -45 -59q-45 -27 -132 -34q-16 0 -26.5 -10t-13.5 -26zM594 511q1 -1 5.5 -2.5t14.5 -1.5q13 0 26.5 1.5t39.5 10.5q27 10 27 29l-3 11q-1 6 -17 7q-22 0 -59 -24q-35 -25 -34 -31z" />
    <glyph glyph-name="G" unicode="G" horiz-adv-x="540" 
d="M484 -32q0 -115 -68 -172t-166 -57q-76 0 -139 31q-62 30 -82 63t-21 48q0 15 9.5 22.5t26.5 9.5q21 0 27 -27q6 -28 52 -52t106 -24q76 0 128 37q53 38 53 113q0 53 -8 75q-6 24 -20 24q-11 0 -37 -26l-49 -53l-62 -16q-29 -6 -55 -6q-42 0 -73.5 16t-52 44.5t-31 69
t-10.5 88.5q0 149 80 289q81 139 188 139q20 0 39 -5t31 -13q7 -4 25 -11t48 -17q61 -19 73 -67l11 -56q0 -21 -20 -47q-19 -25 -19 -44zM196 -4q9 -3 20 -3q57 0 112 67q56 68 56 164q0 76 21 124l47 60q-5 17 -8 33t-8.5 30.5t-16 26.5t-30.5 22q-27 13 -41.5 16t-26.5 3
q-90 0 -166 -118q-76 -116 -76 -241q0 -67 28 -116t89 -68z" />
    <glyph glyph-name="H" unicode="H" horiz-adv-x="990" 
d="M556 421l-3 -49l2 -51l3 -45q0 -34 16 -43t33 -12q16 -3 38 -3l33 1l32 1q105 0 105 33q0 9 -5 29t-5 64q0 83 22 149q22 69 48 81q25 13 36 15q12 0 12 -13q0 -8 -7.5 -20.5t-16 -33.5t-15 -52t-4.5 -74v-15v-13t1 -16.5t3 -24.5q0 -17 2.5 -30.5t7.5 -36.5
q6 -22 24 -31t22.5 -16.5t5.5 -16.5q0 -12 -34 -40q-34 -27 -34 -62q0 -86 -32 -122.5t-80 -36.5q-9 0 -19 0.5t-27 7.5q-23 6 -76 55q-53 48 -70 48q-7 0 -14 -13l-23 -51q-17 -38 -74 -72q-58 -34 -129 -34q-93 0 -169 49q-76 48 -76 114q0 36 25 67t44 31q9 0 16.5 -9
t7.5 -20q0 -9 -16 -25t-16 -46q0 -45 56 -81q56 -37 124 -37q31 0 58.5 9.5t47 29t31 49.5t11.5 71q0 27 -52 63q-52 37 -52 61q0 23 46 32q46 10 46 40q0 34 1 60t5 54q2 14 7 28.5t12 30.5q15 31 15 39q0 14 -27 14l-39 -2l-38 -2l-41 1l-65 15q-53 13 -115 13
q-44 0 -77 -10t-55 -27t-33 -39.5t-11 -48.5q0 -52 39 -94q39 -41 99 -41q23 0 56 9q31 10 51 10q25 0 25 -14q0 -10 -15 -23q-14 -10 -39.5 -16t-42.5 -8q-8 -1 -17 -1.5t-17 -0.5q-83 0 -133 50q-48 49 -48 121q0 82 65 145q64 64 183 64q17 0 28 -0.5t18 -1.5t19 -2.5
t29 -5.5q17 -3 39 -9.5t50 -16.5l44 -18q18 -5 35 -5q13 0 26 3t35 15q22 13 43 13q22 0 27 -26q0 -10 -4 -17.5t-9 -13.5t-10 -10t-8 -7q-6 -6 -7 -13zM799 171h-16h-40l-43 1q-80 0 -105 -6q-24 -6 -27 -19q0 -38 29 -61l57 -38q33 -32 62.5 -49t47.5 -17q30 0 42 35
t12 86l-1 40q0 15 -3 29z" />
    <glyph glyph-name="I" unicode="I" horiz-adv-x="576" 
d="M63 27q0 -49 44 -79q44 -31 107 -31q42 0 82 17.5t61 49.5q21 31 21 51q0 29 -42 29q-9 0 -19.5 2t-24 8.5t-30.5 17.5t-41 29q-46 36 -46 113l2.5 34.5t4.5 45.5t9 53t17 58q8 21 22.5 48.5t36.5 61.5q43 69 108 69q60 0 101 -77q42 -77 42 -212l-3 -61l-3 -44v-11
q0 -20 18 -32q18 -11 18 -39q0 -30 -40 -43q-40 -12 -40 -53q0 -75 -68 -122t-159 -47q-86 0 -153 44q-65 44 -80 133q-2 16 14 37q16 22 30 24q14 0 14 -31l-2 -26zM244 356q-12 -44 -12 -79q0 -80 49 -126q50 -47 105 -47q26 0 44 11.5t18 34.5l-2 49l-2 68v17l3 35l1 37
q0 43 -5.5 80t-16 63t-24.5 41t-32 15q-30 0 -62 -47t-64 -152z" />
    <glyph glyph-name="J" unicode="J" horiz-adv-x="507" 
d="M288 160q6 2 12 3t19 1q21 0 21 5q0 7 -40 35q-39 27 -56 68q-15 39 -20 65.5t-5 59.5q0 83 30 151q32 68 71 68q65 0 88.5 -64t23.5 -179l-2 -97l-2 -84q0 -12 16 -27t16 -30q0 -11 -23 -22l-41 -17q-33 -146 -123 -250q-89 -104 -200 -104q-25 0 -46.5 5t-32.5 10
q-6 2 -15 6t-22 11q-26 12 -26 69q0 78 84 167q85 88 273 150zM188 80q-96 -57 -142 -114.5t-46 -100.5q0 -55 58 -55q47 0 112 48q66 49 113 121q48 72 48 103q0 35 -40 35q-42 0 -103 -37zM272 396q0 -88 13.5 -131t32.5 -43q17 0 34 45q16 47 16 121q0 76 -12.5 115.5
t-32.5 39.5t-35.5 -40t-15.5 -107z" />
    <glyph glyph-name="K" unicode="K" horiz-adv-x="940" 
d="M534 304q0 -45 33 -45q40 0 96 56q56 58 71 114q17 58 75 119q60 63 88 63q8 0 9 -7q3 -13 -48 -71q-51 -59 -73 -125q-23 -68 -73 -108q-50 -41 -50 -58q0 -13 52 -55q52 -40 52 -95q0 -68 24 -94.5t58 -26.5q19 0 29 5l18 4q12 0 18 -10.5t1 -16.5q-30 -33 -78 -33
q-51 0 -96 39t-54 112q-8 73 -42 114q-33 41 -54 35q-21 -7 -32.5 -12t-23.5 -16t-12 -80q0 -117 -65 -176t-156 -59q-88 0 -156 47t-68 118q0 33 15 65q16 33 31 33q10 0 14.5 -13t4.5 -21q0 -7 -8 -26.5t-8 -49.5q0 -54 42 -87q43 -33 102 -33q70 0 126 51q55 51 55 150
l-3 103l-2 67v18v16q0 9 1 19.5t3 25.5t8 31.5t14 34.5q17 39 17 57q0 21 -24 21l-27 -4l-32 -3q-13 0 -42 10l-86 19q-23 4 -50.5 7t-46.5 3q-101 0 -154 -44q-52 -43 -52 -104q0 -50 36 -87q37 -37 96 -37q10 0 23.5 1.5t27 4.5t26.5 6.5t22 6.5q20 6 24.5 10.5t11.5 6.5
q13 0 13 -19q0 -25 -31 -40q-32 -13 -71 -13q-100 0 -154 48t-54 118q0 79 69 144q71 65 186 65q16 0 26.5 -0.5t16.5 -1.5q7 -1 15 -2t18 -3q21 -4 38 -8t29 -9q27 -9 53.5 -23t44.5 -14q13 0 24 4q6 2 18 8t29 17q34 21 55 21q11 0 13 -14q0 -15 -23 -70t-23 -76v-128z
" />
    <glyph glyph-name="L" unicode="L" horiz-adv-x="654" 
d="M201 472q-39 0 -70.5 -10.5t-53 -28t-33 -41.5t-11.5 -51q0 -61 56 -108q55 -46 156 -46q38 0 88 9q28 3 34 28l6 39l1 31l-1 33v28v9q0 118 56 180q57 62 116 62q16 0 32.5 -9t27.5 -40q12 -32 12 -71q0 -83 -38 -170q-37 -84 -72 -98q-34 -14 -41 -55q-8 -42 -11 -70.5
t-3 -49.5v-20t3 -25q4 -17 16 -23.5t30 -10.5l29 -4q13 0 19 1t22 7l28 8q7 0 11.5 -3.5t10.5 -17.5t6 -24q0 -19 -22 -27.5t-50 -12.5l-38 -4q-10 0 -20 2t-36 13q-24 10 -44 10q-27 -21 -80 -43q-50 -21 -140 -21q-62 0 -126 30q-63 29 -68 48q-3 16 -3 23q0 34 54 61
q55 27 139 27q48 0 95 -8.5t93 -28.5q7 -3 14 14.5t7 41.5q0 35 -13.5 59.5t-47.5 24.5h-28l-27 1l-25 -1l-19 -1h-15q-103 0 -164 60t-61 141q0 73 57 129q56 55 166 55q12 0 27 -10.5t17 -21.5q0 -9 -12.5 -13.5t-22.5 -5.5q-5 -1 -14 -1h-19zM166 -18q-58 0 -85 -11.5
t-27 -29.5q0 -21 38 -37.5t99 -16.5q70 0 106 11.5t36 30.5q0 10 -12.5 20t-34.5 17t-53 11.5t-67 4.5zM437 402q0 -56 3 -84l6 -47q0 -27 16 -27q24 0 58 49q35 51 41 82l6 52q0 16 1 21q0 46 -16 71t-39 25q-28 0 -53 -39q-23 -38 -23 -103z" />
    <glyph glyph-name="M" unicode="M" horiz-adv-x="1025" 
d="M34 128q-20 -43 -20 -77q0 -27 11.5 -47.5t31.5 -34.5t47.5 -21t60.5 -7q79 0 153 41q75 41 118 167l65 218q23 97 23 136l-1 14l-1 18q0 9 37 30q36 19 53 20q21 0 18 -25l-14 -181l-4 -134q0 -95 8 -138q9 -42 22 -66t32 -24q34 0 74.5 66t70.5 196q31 127 31 297
l32 21q20 11 35 11q25 0 25 -35v-9l-16 -211l-6 -165q0 -185 38 -205q39 -21 39 -39q0 -9 -8 -15.5t-22 -6.5q-18 0 -36 13.5t-32.5 40.5t-23.5 67t-9 93l-1 111v13q0 43 -5 45q-3 -11 -7.5 -35.5t-12.5 -76.5q-7 -50 -68 -147q-60 -96 -118 -96q-48 0 -78.5 76.5
t-30.5 240.5q0 42 -5 44q-8 -20 -15 -40q-4 -11 -10 -31l-15 -49q-8 -29 -20.5 -63.5t-28.5 -72.5q-32 -77 -108 -126q-77 -50 -160 -50q-89 0 -150 49q-62 50 -62 130q0 32 6.5 55.5t16 39t20.5 23.5t20 10q12 0 12 -17q0 -16 -12 -41z" />
    <glyph glyph-name="N" unicode="N" horiz-adv-x="866" 
d="M61 160q-33 -42 -33 -85q0 -50 45 -87q47 -38 109 -38q98 0 180 91q83 92 107 291l12 236q0 22 32 22q25 0 48 -14q24 -12 24 -32q0 -232 49 -397t92 -165q23 0 23 70v412q0 36 27 89q27 54 52 54l9 -3l10 -5l5 -2q-20 -7 -37.5 -90t-17.5 -227q0 -178 -24.5 -261.5
t-67.5 -83.5q-34 0 -81 65q-46 68 -68 133l-35 108q-12 42 -16 43q-1 -2 -1.5 -3.5t-1 -5l-1.5 -10.5t-2 -20q-2 -13 -7 -41.5t-15 -73.5q-18 -90 -106 -163q-87 -75 -191 -75q-82 0 -143 47q-60 46 -60 119q0 31 11 61q9 31 27.5 58t30.5 37q15 12 23 13q13 0 13 -18
q0 -22 -21 -49z" />
    <glyph glyph-name="O" unicode="O" horiz-adv-x="591" 
d="M386 521q80 0 124 -78q45 -77 45 -191q0 -150 -70 -268q-69 -119 -190 -119q-18 0 -46.5 4l-76.5 11q-48 8 -112 98q-64 89 -64 216q0 150 77 280q76 130 172 130h10t9 -1t12.5 -3l19.5 -5q25 -6 40 -20.5t15 -31.5l-2 -17q0 -6 11 -6zM273 93q-56 0 -90 48
q-35 50 -35 122q0 31 6 61.5t26 76.5q21 47 53 76q33 30 33 36q0 9 -12 9q-9 0 -22 -6q-13 -7 -57 -46q-44 -41 -81 -125q-36 -84 -36 -167q0 -105 53 -179q54 -75 106 -81l59 -6h14q107 0 160 86t53 206q0 108 -39 189q-37 82 -97 82q-6 0 -19.5 -3l-35.5 -8
q-41 -10 -85 -74q-43 -61 -43 -131q0 -50 24 -86q24 -33 69 -33q14 0 20 -1t16 -8q12 -7 13 -17q0 -9 -12.5 -15t-40.5 -6z" />
    <glyph glyph-name="P" unicode="P" horiz-adv-x="719" 
d="M153 184q-87 0 -139 49t-52 121q0 102 104 182t304 80q142 0 224 -85q84 -84 84 -191q0 -93 -63 -156q-62 -63 -182 -63l-23 1q-12 0 -22 2q-41 0 -41 -40q0 -19 6 -46l13 -54q3 -17 -21 -43q-24 -27 -47 -27q-16 0 -24 14q-9 12 -9 44q0 63 3.5 114.5t10.5 92.5l30 173
q8 45 12 85t4 88q0 30 -34 30l-13 -1l-69 -11q-60 -9 -133 -79q-74 -71 -74 -138q0 -42 29.5 -69.5t89.5 -27.5q10 0 16.5 0.5t11.5 1.5l22 2q22 0 44 -9t23 -19q0 -9 -19 -16q-22 -5 -66 -5zM358 254q0 -43 29 -69q31 -25 75 -25q59 0 103 44q45 45 45 136q0 89 -65 151
t-123 62q-45 0 -45 -40l1 -17l2 -24q0 -18 -3 -45t-8 -64z" />
    <glyph glyph-name="Q" unicode="Q" horiz-adv-x="630" 
d="M557 228q-18 -86 -58 -141l-75 -87q0 -4 4 -8t9.5 -7t11 -5.5t8.5 -3.5q2 -1 8 -2.5l14 -3.5q18 -5 22.5 -6t16.5 -1q7 0 12 0.5t10 1.5l17 2q15 0 21 -17t6 -24q0 -20 -23.5 -27.5t-75.5 -7.5q-25 0 -88 21q-62 21 -67 21l-99 -25q-50 -11 -122 -11q-66 0 -93.5 18
t-27.5 54l3 30q0 19 31 34q16 8 29.5 13t25.5 7q13 2 26.5 3.5t29.5 1.5q22 0 45.5 -3t45 -8.5t39.5 -12.5t30 -14q22 -15 40 -15q49 0 86 49q19 25 32 45t20 36q14 33 14 67l7 100q0 61 -14 106.5t-38.5 74.5t-58 43.5t-72.5 14.5q-32 0 -63 -8.5t-58 -25t-49.5 -41
t-35.5 -56.5q-26 -66 -26 -123q0 -77 54 -113q55 -34 127 -34q59 0 73 11l26 26q11 12 19 14q1 -2 4 -2.5t7 -2t7.5 -5.5t5.5 -13q0 -18 -40 -42q-41 -24 -109 -24q-90 0 -157 47q-65 47 -65 146q0 40 11.5 83.5t38.5 100.5t95 95t145 38q105 0 178 -67q74 -66 74 -200
q0 -40 -4 -67t-10 -50zM146 -2q-57 0 -87 -10.5t-31 -26.5q0 -26 99 -26q150 0 152 31q0 11 -36 23q-36 9 -97 9z" />
    <glyph glyph-name="R" unicode="R" horiz-adv-x="805" 
d="M153 184q-90 0 -140.5 42t-50.5 108q0 105 115 193q116 89 313 89q191 0 282 -70q93 -69 93 -173q0 -79 -52 -149q-51 -70 -109 -94q-58 -22 -58 -44q0 -15 14 -32q22 -22 46 -32.5t33 -13.5q10 -3 22 -4.5l20 -2.5q8 0 17 2l17.5 4t15 4t9.5 2q8 0 13 -8l4 -13
q0 -18 -30.5 -32.5t-73.5 -14.5q-30 -1 -58 7t-51 20t-40 26t-24 25q-9 10 -15 19t-13 16.5t-15.5 12.5t-21.5 7q-16 0 -29.5 -12.5t-13.5 -33.5q0 -20 9 -37.5t9 -25.5q0 -16 -18 -28t-41 -12q-21 0 -33.5 9.5t-12.5 33.5q0 119 15 208l30 171q8 46 12 86t4 88q0 30 -35 30
l-13 -1l-72 -11q-64 -9 -144 -77q-79 -67 -79 -135q0 -45 38 -72t116 -27q45 0 71.5 -8t26.5 -19q0 -9 -24 -15t-78 -6zM446 184q12 -5 33 -26q24 -21 35 -18q66 24 123 63t57 125q0 101 -64 156q-64 56 -138 56q-40 0 -67 -15.5t-27 -44.5q0 -54 -9 -109l-17 -109
q0 -27 15.5 -44.5t58.5 -33.5z" />
    <glyph glyph-name="S" unicode="S" horiz-adv-x="519" 
d="M372 369q3 13 5 25t2 27q0 61 -35 105t-82 44q-42 0 -81 -43q-38 -41 -55 -108q-16 -64 -16 -91q0 -88 94 -125l175 -42q95 -27 95 -96q0 -77 -62 -115q-61 -37 -152 -37q-105 0 -192 40q-88 40 -88 89q0 25 7.5 36t18.5 13q20 0 20 -35v-9q-2 -17 10 -30t33.5 -22
t52.5 -14t67 -5q84 0 147 23q64 21 64 61q0 38 -112 63q-111 25 -182 74q-71 50 -71 195q0 61 63 147q65 86 152 86h22l64 -15q52 -12 90 -87q39 -74 39 -163q0 -13 -6 -24.5t-15 -20.5t-20 -14t-22 -5q-35 0 -35 42q0 4 1 12.5t4 18.5z" />
    <glyph glyph-name="T" unicode="T" horiz-adv-x="737" 
d="M565 430l-2 -37q0 -24 3.5 -58t10.5 -79t10.5 -80.5t3.5 -62.5q0 -112 -62 -162q-62 -51 -158 -51q-101 0 -184 49q-83 48 -83 110q0 30 23 58q22 28 40 28q21 0 21 -26q0 -6 -5 -12.5t-10.5 -15t-10.5 -18t-5 -21.5q0 -42 54 -73q56 -32 123 -32q69 0 119 42
q50 41 50 128l-5 125q0 33 -1 51.5t-3 30.5v43q0 12 3.5 26t8 28.5l9 28t6.5 22.5q0 18 -14 30.5t-53 24.5q-19 7 -39 11.5t-42 8.5q-43 8 -71 11t-48 3q-114 0 -178 -49t-64 -114q0 -24 10 -45.5t29.5 -37.5t47.5 -25.5t64 -9.5h15q5 0 11 0.5t14 1.5q11 0 22 3l23.5 6.5
t27.5 6.5t35 3q30 0 30 -15t-27 -31q-26 -16 -56 -16q-138 0 -211 54t-73 133q0 82 74 145q74 64 197 64q61 0 122.5 -15.5t107.5 -37.5q45 -22 61 -22q25 0 52 21q29 23 47 30q19 8 36.5 13t31.5 5q24 0 38.5 -12t14.5 -31q0 -31 -38 -56.5t-108 -25.5q-16 0 -26.5 -10
t-13.5 -26zM590 535q2 -1 6.5 -2t9.5 -2q23 0 49 9q27 10 27 28l-3 9q-5 12 -19 12q-17 0 -45 -24t-25 -30z" />
    <glyph glyph-name="U" unicode="U" horiz-adv-x="854" 
d="M219 159q-29 -6 -56 -6q-86 0 -142 53q-54 52 -54 131q0 69 43 134q43 66 102 102q60 36 92 45q30 10 62 10q68 0 115 -40q49 -39 49 -88l-14 -379q0 -70 23 -105t58 -35q47 0 88 62q41 64 41 167q0 32 3 78t8 109q12 124 12 168q0 22 15 34t32 12q15 0 28.5 -11.5
t13.5 -34.5q0 -39 -12 -166q-12 -128 -12 -194q0 -177 59 -197q12 -2 18 -3.5t17 -4.5q3 -6 3 -10q0 -8 -14 -16t-41 -8q-22 0 -38 6.5t-29 38.5q-10 31 -22.5 51t-25.5 22q-11 0 -29 -49q-17 -48 -50 -80q-33 -33 -71 -33q-55 0 -103 61q-47 62 -47 120q0 56 9 161t9 142
v37l-6 50q0 22 -36 46q-35 24 -79 24q-38 0 -93 -44t-93 -100q-39 -56 -39 -98q0 -53 53 -85q56 -29 116 -29q17 0 33 3t27 3q25 0 25 -14q0 -8 -16 -23q-14 -11 -32 -17z" />
    <glyph glyph-name="V" unicode="V" horiz-adv-x="741" 
d="M225 145q-29 -6 -54 -6q-87 0 -130 41q-41 41 -55 75q-14 36 -14 76q0 39 10 69q5 17 16 38.5t28 47.5q34 52 91 86q28 17 48.5 27t34.5 14q29 8 54 8q56 0 100 -33q46 -33 56 -81q6 -23 10.5 -44t6.5 -39q3 -17 6 -39t5 -48l7 -188q0 -66 12 -100t35 -34q13 0 28 14
t30 39t28 60t24 77l34 183q7 52 10.5 96t3.5 81q0 14 1 19.5t8 17.5t20 12q9 0 16 -11.5t7 -32.5q0 -114 -18 -249q-18 -136 -61 -228q-21 -46 -40.5 -77t-37.5 -49.5t-35.5 -26.5t-33.5 -8q-51 0 -88 61q-36 60 -36 138v71l1 69l-2 94q0 19 -1.5 40.5t-5.5 44.5
q-7 48 -43 76q-37 29 -75 29q-26 0 -81 -36q-55 -35 -98 -93t-43 -104q0 -57 51 -94q52 -36 122 -36q27 0 42 4l30 4q23 0 23 -14q0 -10 -14.5 -22.5t-32.5 -18.5z" />
    <glyph glyph-name="W" unicode="W" horiz-adv-x="1053" 
d="M225 145q-29 -6 -54 -6q-87 0 -130 41q-41 41 -55 75q-14 36 -14 76q0 39 10 69q5 17 16 38.5t28 47.5q35 53 90 86t78 39q25 7 37 8q7 1 15 1.5t17 0.5q63 0 113 -33q51 -33 61 -79q5 -23 9 -39.5t6 -27.5q4 -20 4 -48l4 -122v-15v-15v-12l-1 -37v-37v-11q0 -78 15 -122
t38 -44q21 0 45.5 53t41.5 159q22 49 36.5 127.5t14.5 190.5q0 20 16.5 34.5t38.5 14.5q19 0 31 -11t12 -33q0 -131 6 -224.5t17 -152.5q24 -117 61 -117q44 0 76 119q17 60 28 111.5t16 94.5q5 44 8 89.5t3 93.5q0 43 7.5 65.5t18.5 22.5q9 0 17.5 -19t8.5 -51
q0 -318 -64 -464q-63 -147 -149 -147q-49 0 -87 50q-37 49 -37 118v15v12q0 38 -3 59t-10 21q-11 0 -27 -54l-33 -112q-15 -56 -48 -96q-32 -42 -66 -42q-45 0 -78 64t-33 161v71l1 69l-2 94q0 19 -1.5 41t-5.5 47q-8 52 -47 78q-38 28 -85 28q-35 0 -93 -38
q-56 -37 -100 -96q-43 -56 -43 -103q0 -57 51 -94q52 -36 122 -36q27 0 42 4l30 4q23 0 23 -14q0 -10 -14.5 -22.5t-32.5 -18.5z" />
    <glyph glyph-name="X" unicode="X" horiz-adv-x="787" 
d="M216 207h15q45 0 45 -19q0 -10 -12 -19q-13 -11 -22 -11l-20 -2h-23q-100 0 -160 54q-59 56 -59 134q0 64 45 132q23 34 47 58.5t50 38.5l43.5 23t28.5 11q23 5 52 5q69 0 128 -36q58 -34 69 -79l25 -104q15 -57 31 -57l5 1q8 2 24 14q20 14 78 118q58 105 72 114
q13 9 24 9q15 -2 25.5 -8t10.5 -15q-1 -10 -10 -16l-211 -281q-3 -3 -3 -9q0 -29 69 -132t120 -103q13 1 26.5 -5t16.5 -19q0 -20 -22 -24q-21 -4 -32 -5t-18 -1q-67 0 -125 57q-60 60 -107 123l-174 -182q-86 -89 -139 -89q-20 0 -37 10t-17 22q0 20 49 20q40 0 78 33
q39 33 100 107l55.5 65t39.5 43q30 31 30 52q-1 3 -2.5 11t-5.5 21l-7 24.5t-5 18.5l-34 123q-15 63 -52.5 92t-80.5 29q-33 0 -91 -31q-57 -30 -97 -79t-40 -97q0 -59 56 -100t127 -41z" />
    <glyph glyph-name="Y" unicode="Y" horiz-adv-x="782" 
d="M215 196l27 3q25 0 25 -13q0 -11 -8.5 -19.5t-22.5 -14.5t-32.5 -9.5t-38.5 -3.5q-92 0 -148 55q-57 55 -57 132q0 65 43 130q43 66 101 100q57 34 88 43q30 10 65 10q54 0 95 -30q42 -30 55 -79q13 -48 13 -81l2 -78l-1 -91l-1 -96q0 -63 17 -99q20 -32 46 -32
q38 0 75 49t54 121q16 70 21 105q2 17 3.5 34t1.5 34l6 199q0 23 12 34.5t30 11.5q15 0 26.5 -13t11.5 -33v-570q0 -116 -70 -190q-69 -76 -166 -76q-69 0 -134 38.5t-125 120.5q-3 6 0.5 11t9.5 8.5t14 6t15 2.5q13 0 24 -30q10 -31 57 -58q46 -27 107 -27q82 0 140 49
q58 48 58 136q0 34 -6 73q-6 40 -18 40q-11 0 -29 -43q-18 -42 -51 -66q-34 -26 -70 -26q-55 0 -95 48q-39 49 -39 119v12v33l1 42v12v13v15v18l-3 95l-7 86q-3 22 -14 39.5t-27.5 29t-37 17.5t-42.5 6q-34 0 -93 -38q-57 -37 -98 -91q-39 -53 -39 -99q0 -57 55 -94
q55 -36 126 -36h12q8 0 36 5z" />
    <glyph glyph-name="Z" unicode="Z" horiz-adv-x="678" 
d="M204 229q-21 -3 -40 -3q-95 0 -153 58q-57 58 -57 137q0 77 60 134q61 57 179 57q47 0 107 -12q30 -5 56.5 -12.5t49.5 -15.5l63 -23q15 -6 29 -6q17 0 37 17q20 19 38 26q19 9 29.5 12t19.5 3q30 0 30 -22q0 -17 -20.5 -32t-48.5 -21q-25 -3 -82 -82q-28 -40 -51 -69
t-40 -48l-12 -18l-4 -13q0 -16 30 -16q85 0 119 -34q9 -18 21 -36q29 -6 50 -27q21 -18 21 -36t-28 -18l-20 2l-7 -90q-15 -106 -83 -195q-67 -87 -153 -104l-97 -16q-57 0 -97 37q-40 36 -40 93q0 37 18.5 76.5t57.5 78t100 76t147 72.5l40 10q18 4 18 13q0 7 -32 21
q-33 14 -70 14q-89 0 -148 -86q-5 -10 -22 4q-16 13 -16 38q0 8 6 14q60 38 106.5 87.5t94.5 112.5q49 66 50 74q0 7 -4.5 14.5t-16 15.5t-31.5 16t-51 17q-62 18 -149 18q-105 0 -163 -40t-58 -95q0 -50 54 -89q56 -38 149 -38q35 0 46.5 -4.5t12.5 -14.5q0 -10 -15 -20
t-30 -12zM354 84q-45 -27 -80 -56.5t-58.5 -58.5t-35.5 -56.5t-12 -50.5q0 -27 18 -44t47 -17q19 0 43 7.5t49 20.5t50.5 31.5t48.5 41.5q46 45 69 92.5t23 80.5q0 23 -11.5 38t-35.5 15q-22 0 -50 -10t-65 -34z" />
    <glyph glyph-name="a" unicode="a" horiz-adv-x="380" 
d="M203 315q3 23 26 23q18 0 35 -14q17 -12 17 -30q0 -39 -6 -94l-5 -64q0 -76 16 -101q8 -7 20.5 -16.5l24.5 -18.5q4 -15 -9 -19.5t-38 -4.5h-14q-12 0 -29 14q-8 5 -15 8.5t-12 4.5q-21 0 -41 -29q-18 -30 -53 -30h-13q-50 6 -79 59q-27 52 -27 126q0 91 39 165
q41 74 105 74q24 0 49 -49zM163 296q-41 6 -75 -60q-34 -64 -34 -132q0 -42 14.5 -68.5t49.5 -32.5q38 -6 64 51q27 58 27 129q0 46 -11 77.5t-35 35.5z" />
    <glyph glyph-name="b" unicode="b" horiz-adv-x="360" 
d="M196 -52q-36 0 -58 11l-30 17l-24 -3l-27 -4q-15 0 -24 11t-9 44l5 302q0 65 4.5 113.5t14.5 98.5q11 51 24 58q13 10 29 10q15 0 25 -8q10 -6 10 -18l-24 -131q-10 -54 -15 -94.5t-5 -74.5q0 -26 8 -28q31 29 61.5 52t58.5 23q56 0 89 -51q15 -26 23 -56.5t8 -68.5
q0 -81 -37 -142q-36 -61 -98 -61h-9zM212 272q-46 0 -79 -52q-32 -53 -32 -115q0 -48 20 -78.5t65 -30.5q38 0 65 45q25 46 25 107q0 52 -17 88t-47 36z" />
    <glyph glyph-name="c" unicode="c" horiz-adv-x="313" 
d="M257 218q0 -26 -6.5 -37t-21.5 -12q-11 0 -23 12q-9 12 -9 29q0 51 -15.5 79t-37.5 28q-29 0 -54 -46q-24 -45 -30 -91l-4 -60q0 -59 32 -97q31 -37 71 -37q27 0 46.5 20.5t19.5 57.5q0 31 14 31q10 0 18.5 -13.5t9.5 -29.5q0 -48 -30.5 -75.5t-75.5 -27.5q-60 0 -109 45
q-48 45 -48 126l6 84q6 70 45 118q39 49 84 49q15 0 24.5 -3t26.5 -16l46 -32q21 -24 21 -102z" />
    <glyph glyph-name="d" unicode="d" horiz-adv-x="408" 
d="M260 475q4 24 6 49.5t2 59.5q0 15 8 23q8 6 22 8q15 0 30.5 -11t15.5 -24l-35 -254l-11 -172q0 -80 15 -111l43 -39q3 -9 -2 -12.5t-19 -5.5q-17 0 -40 8.5t-37 22.5q-14 15 -23 15q-5 0 -31 -32q-24 -32 -68 -32q-62 0 -95 45q-31 46 -31 116q0 84 39 159q40 76 93 76
q18 0 39 -12l44 -23q10 0 15 27zM172 309q-40 0 -67 -58q-26 -60 -26 -124q0 -42 12 -72.5t37 -34.5q41 -8 70 55q30 63 30 133q0 41 -11 68q-9 26 -33 32z" />
    <glyph glyph-name="e" unicode="e" horiz-adv-x="308" 
d="M219 43q0 11 14 11q9 0 15.5 -6.5t4.5 -18.5q-9 -37 -38 -60q-28 -25 -66 -25q-35 0 -61 14t-43 39.5t-25.5 60.5t-8.5 77q0 88 33 160q34 72 83 72q22 0 44 -17l47 -29q22 -12 22 -36q-19 -171 -94 -183q-74 -12 -74 -41q0 -35 24 -62q25 -25 55 -25q25 0 43 16.5
t25 52.5zM154 313q-30 9 -55 -40q-24 -50 -24 -103q0 -18 3.5 -29t9 -17t12 -8t13.5 -2q36 0 63 40q28 40 28 86q0 26 -12 46t-38 27z" />
    <glyph glyph-name="f" unicode="f" horiz-adv-x="277" 
d="M93 565q0 13 31 18q13 0 25.5 -6.5t13.5 -16.5q0 -19 -4 -49t-13 -68l-34 -158l34 -70q18 -36 24 -76q7 -5 13 -10.5t11 -12.5q12 -12 13 -24q0 -13 -25 -13l3 -70l3 -67q0 -45 -4 -81.5t-13 -62.5t-24.5 -40.5t-39.5 -14.5q-50 0 -74 65q-21 64 -21 167l6 132l11 102
q-11 23 -15 37l-4 30q0 26 10.5 33.5t26.5 12.5q3 24 24 86q22 60 22 157zM91 189q-3 -3 -4 -9q0 -12 10 -24.5t21 -14.5q6 2 7 3q6 4 -11 27q-15 24 -23 18zM83 107q-10 0 -14 -34q-2 -17 -4 -31t-3 -25t-1.5 -24t-0.5 -27q0 -32 2.5 -59.5t8 -47.5t13.5 -31.5t20 -11.5
q17 0 32 47q15 46 15 106q0 59 -17 98q-15 40 -51 40z" />
    <glyph glyph-name="g" unicode="g" horiz-adv-x="341" 
d="M104 -41q-45 0 -72 54q-25 54 -25 132q0 77 27 139q27 61 75 61q14 0 47 -14t42 -14q6 0 17 20t30 20q13 0 20.5 -10t7.5 -26v-9q-5 -38 -8 -78.5t-3 -75.5q0 -31 3 -66.5t8 -75.5l12 -88q0 -75 -39 -135t-105 -60q-31 0 -61.5 12.5t-56.5 31.5q-25 18 -25 29q0 15 19 15
q11 0 25 -7t40 -16q27 -9 50 -9q43 0 70 30.5t27 108.5q0 34 -5.5 42.5t-11.5 12.5q-4 4 -13 4q-7 0 -31 -8q-11 -5 -20 -8t-14 -5q-11 -5 -17 -6zM131 -8q29 0 55 57q25 56 25 124q0 45 -12 75t-31 34l-23 4q-40 0 -65 -48q-23 -51 -23 -112q0 -27 4.5 -51.5t13.5 -42.5
t23 -29t33 -11z" />
    <glyph glyph-name="h" unicode="h" horiz-adv-x="306" 
d="M29 213l14 214q0 51 3 92t6 73q0 4 4 10.5t11 11.5t15 9t16 4q12 0 19.5 -8.5t7.5 -26.5l-3 -26l-20 -113q-18 -96 -18 -181q0 -28 17 -28q21 0 27 24q6 23 21 34q16 11 33 11q16 0 29 -8q11 -6 13 -17l-2 -73v-12q0 -36 -2 -44q0 -54 6.5 -89t29.5 -65q5 -6 -1 -12
t-18 -6q-14 0 -27.5 9t-23.5 35l-14 49q-6 24 -6 48q0 25 1 29q0 70 -28 70q-18 0 -32.5 -39.5t-14.5 -111.5v-45l4 -31q0 -9 -13.5 -17t-30.5 -8q-12 0 -19.5 3.5t-8.5 13.5z" />
    <glyph glyph-name="i" unicode="i" horiz-adv-x="173" 
d="M23 287q0 19 8 27t21 10q14 0 25 -11t11 -29q0 -39 -11 -103l-10 -86q0 -29 9 -50q9 -17 27 -23q19 -4 19 -13q0 -24 -44 -24q-14 0 -42 9q-29 8 -29 78q0 22 3 51.5l5 50.5zM64 364q-16 3 -26 13q-7 10 -8 27q0 18 11 31.5t30 13.5q4 0 11.5 -1t14.5 -5.5t12 -12.5
t5 -22q0 -18 -11 -31.5t-30 -13.5z" />
    <glyph glyph-name="j" unicode="j" horiz-adv-x="231" 
d="M-4 1q9 81 43 138q34 59 34 189q0 18 30 18q20 0 34.5 -14t14.5 -45q0 -14 -4 -29l-5 -40l-2 -43l10 -137l10 -214q0 -48 -19.5 -70.5t-50.5 -22.5q-34 0 -62 21q-28 19 -28 44q6 0 14 2q48 -12 55 -12q15 0 23 8t8 30l-3 160q0 50 -2 76t-6 47q-3 30 -16 30
q-11 0 -20 -31q-4 -15 -6.5 -28.5t-4.5 -26.5q-3 -24 -3 -51q0 -12 -21 -12q-22 0 -23 13zM101 364q-16 3 -26 13q-7 10 -8 27q0 18 11 31.5t30 13.5q11 2 25.5 -7t18.5 -35q0 -16 -11.5 -30t-30.5 -14z" />
    <glyph glyph-name="k" unicode="k" horiz-adv-x="366" 
d="M20 -24q0 66 1.5 118.5t5.5 92.5l20 190l13 138v36l-4 21q-1 13 14 25.5t35 12.5q17 0 28 -11t11 -35q0 -30 -21 -106l-16.5 -63l-9.5 -37q-2 -11 -4.5 -23t-4.5 -23l-3 -36q0 -10 4 -11q7 0 36 32q14 16 29 28t29 20q29 17 55 17q36 0 59 -33q22 -34 22 -83
q0 -50 -27 -98q-27 -49 -63 -65q-36 -15 -36 -22l14 -21l5 -12.5t5 -18.5q3 -20 31 -20q26 0 47 15q22 16 27 16q3 -5 3 -7q0 -9 -6 -21q-2 -6 -8.5 -14t-17 -15t-25 -12t-30.5 -5q-31 0 -68 23l-73 52q-9 0 -9 -21v-44q0 -11 -18 -11q-16 0 -32.5 9t-17.5 22zM154 296
q-11 -12 -22 -22t-20 -20.5t-15 -24t-8 -32.5q0 -25 16 -40l35 -29q21 -14 28 -29q5 -4 10 -4q15 -2 33.5 8.5t34.5 29.5t26.5 45.5t8.5 57.5q0 39 -21.5 60t-51.5 21t-54 -21z" />
    <glyph glyph-name="l" unicode="l" horiz-adv-x="241" 
d="M160 -52q-28 0 -49 7.5t-40 23.5l-31 53q-2 -1 -13 -7t-16 -6q-6 0 -7 9l6 35q3 14 5 25.5t2 20.5l-3 29q-3 18 -3 82q0 36 1.5 70.5t5.5 68.5t11 73.5t18 86.5q22 94 86 94q18 0 39 -10.5t34 -49.5q14 -39 14 -90q0 -109 -40 -229q-40 -121 -76 -130l-7 -15l-4 -29
q0 -31 17 -51.5t62 -20.5q4 0 10 -2.5t12 -6.5t10 -8.5t4 -8.5q0 -14 -48 -14zM68 312q0 -27 -1 -36.5t-4 -21.5v-37q0 -89 25 -89q20 0 50 64q31 63 37 114l5 87q0 135 -40 135q-21 0 -41 -52.5t-31 -163.5z" />
    <glyph glyph-name="m" unicode="m" horiz-adv-x="446" 
d="M8 -24q0 1 3 43t3 83l7 144l-1 14v14v14q0 13 8.5 24.5t29.5 11.5q13 0 22.5 -6.5t9.5 -19.5v-51q0 -24 6 -25q8 11 12.5 19t13.5 19q7 7 20 15.5t25 8.5q18 0 47 -29l32 -29q6 0 18 18q14 20 25 27q26 18 43 18q22 0 39 -20.5t17 -44.5v-17q0 -4 -1 -13t-1 -15v-17
q0 -7 -1 -16t-1 -14q-1 -33 7 -64t10 -49q0 -9 -6 -22t-20 -15q-11 0 -23 23q-4 10 -8 25t-9 37l-7 69v16l1 14v10q0 41 -18 41q-21 0 -40 -58q-19 -56 -19 -151q0 -18 -8.5 -26.5t-21.5 -10.5q-17 0 -29.5 9t-12.5 24q9 61 9 106q0 55 -11.5 87.5t-29.5 32.5q-24 0 -39 -49
q-8 -24 -13 -47.5t-7 -46.5t-3.5 -49.5t-1.5 -57.5q0 -14 -11.5 -23t-26.5 -9q-16 0 -27 8q-9 4 -11 20z" />
    <glyph glyph-name="n" unicode="n" horiz-adv-x="322" 
d="M20 20q0 4 3 37t3 64l6 115l-1 21q0 19 -1 22q0 19 15.5 34.5t33.5 15.5q24 0 21 -31q0 -40 16 -40q13 2 25.5 18t25.5 24q15 9 28 10q32 0 44 -99l25 -205q13 -7 14 -14q0 -7 -18 -7q-12 0 -25 4t-23.5 11t-17 17.5t-6.5 24.5q0 112 -6 153t-20 41q-9 0 -24 -18l-30 -34
l-18 -202q-3 -31 -20 -31q-15 0 -33 25q-17 26 -17 44z" />
    <glyph glyph-name="o" unicode="o" horiz-adv-x="338" 
d="M289 213l4 -56q0 -90 -35 -152q-34 -61 -106 -61q-35 0 -60 12.5t-42 35t-25 53.5t-8 67q0 91 39 171q40 81 89 81q24 0 47 -24q25 -3 50 -15q28 -12 38 -57zM188 292q-15 15 -30 16q-32 0 -57 -61q-24 -60 -24 -133q0 -58 19 -95q19 -36 61 -36q49 0 73 42.5t24 109.5
q0 24 -2.5 47t-7 42.5t-9.5 34t-10 22.5q-11 15 -21 15z" />
    <glyph glyph-name="p" unicode="p" horiz-adv-x="362" 
d="M43 360q0 9 10.5 16t27.5 9q26 0 26 -25q0 -9 -6 -37l-5 -33q0 -12 7 -12q4 2 9 5t17 11t35.5 17t45.5 9q51 0 79 -46q30 -47 30 -110q0 -78 -44 -137t-128 -59q-19 0 -22 1q-15 0 -23 -3t-12 -20l-4 -32l-1 -35l1 -47l1 -72q0 -10 -11.5 -17.5t-29.5 -9.5
q-14 0 -24.5 8.5t-10.5 26.5l8 218l16 213zM199 268q-14 6 -26 6q-41 0 -64 -59q-22 -57 -22 -129q0 -38 6 -62.5t18 -27.5t24 -3q53 0 89 51q36 52 36 117q0 39 -14.5 65.5t-46.5 41.5z" />
    <glyph glyph-name="q" unicode="q" horiz-adv-x="344" 
d="M276 -146q0 -8 2 -14l5 31l13 3h13q15 0 15 -10l1 -16l1 -20q0 -48 -14.5 -77.5t-36.5 -29.5q-29 0 -53 58q-22 59 -22 173v16q0 9 -6 11l-14 -3l-31 -10q-21 -7 -42 -7q-25 0 -44.5 12t-32.5 33.5t-19.5 50t-6.5 61.5q0 79 33 144q35 65 87 65q15 0 42 -12t42 -12
q9 0 11.5 6.5t4.5 20.5q0 25 31 30q15 0 26 -9.5t11 -28.5l-8 -187l-8 -257v-22zM163 278q-43 0 -62 -42q-10 -20 -16 -38.5t-10 -35.5q-7 -29 -7 -66q0 -39 9 -67t26 -32l28 -4q44 0 67 48q24 48 24 113q0 46 -11 81t-31 41z" />
    <glyph glyph-name="r" unicode="r" horiz-adv-x="275" 
d="M4 8q13 21 21.5 45.5t13 49t6.5 48t4 43.5q3 40 3 78v72q0 8 12 20q10 8 26 10q11 0 19 -9q7 -10 7 -29l1 -35q2 -8 10 -8q6 0 33 11q7 3 15 0.5t14.5 -8.5t11 -14t5.5 -17q-1 -7 -9 -21t-15 -44q-6 -29 -6 -59q0 -13 0.5 -23.5t1.5 -20t3.5 -20t7.5 -24.5q11 -27 23 -34
q13 -6 14 -16q0 -11 -14 -19q-12 -9 -28 -9q-7 0 -20 7q-13 6 -29 52q-15 46 -15 102v24l3 28l4 28q0 16 -4.5 23t-13.5 9q-11 0 -23 -15.5t-17 -40.5l-9 -113q0 -28 -3.5 -45t-14.5 -37t-18 -21q-8 0 -17 12q-6 12 -3 20z" />
    <glyph glyph-name="s" unicode="s" horiz-adv-x="308" 
d="M189 208q3 13 3 25q0 8 -1.5 17.5t-7 18t-15 14.5t-25.5 8q-24 0 -43.5 -22t-19.5 -64q0 -94 85 -107q86 -12 86 -77q0 -45 -28 -65t-73 -20q-51 0 -94 22t-43 50q0 36 22 36q8 0 15 -7.5t9 -23.5q0 -18 16.5 -28t39.5 -10q26 0 46 12t20 34q0 53 -81 79q-81 25 -81 111
q0 50 31 96t72 46q11 0 47 -17q17 -8 31 -15.5t24 -15.5q21 -15 21 -97q0 -27 -8.5 -43t-20.5 -16q-10 0 -20 12q-8 14 -8 32l1 15v0z" />
    <glyph glyph-name="t" unicode="t" horiz-adv-x="249" 
d="M64 456q0 7 6 15t14 14t17.5 10t17.5 4q20 0 20 -22q0 -6 -3.5 -17l-8.5 -25.5t-10 -31t-8 -33.5q-6 -33 -6 -58l1 -15l48 -1q28 0 28 -10q0 -5 -19 -17q-8 -4 -23.5 -10.5t-38.5 -14.5l-10 -73l-5 -81v-26q0 -10 1 -16t2.5 -14t5.5 -19q7 -21 28 -21q18 0 40 19
q9 6 24 -5t15 -21q-2 -2 -14 -11t-40 -20q-24 -7 -40 -7q-48 0 -67 49q-18 48 -18 121v32t2 32l5 45q-23 0 -23 13q0 8 19 33q20 26 23 38l17 144v0z" />
    <glyph glyph-name="u" unicode="u" horiz-adv-x="340" 
d="M245 269q-22 -78 -22 -142q0 -40 8.5 -60.5t28.5 -20.5q7 0 19 5q1 -6 5 -11q-36 -48 -69 -48q-3 1 -5.5 1.5t-10.5 5.5l-24 17q-13 10 -21 11q-7 0 -20 -16q-11 -16 -25.5 -24.5t-27.5 -8.5q-17 0 -30.5 21t-22.5 60t-14 95t-5 125q0 35 28 35q18 0 33.5 -17t15.5 -43
l-6 -44q-2 -20 -3.5 -41t-1.5 -44q0 -89 34 -91q14 0 29.5 18t26.5 49l5 98q0 16 0.5 28.5t1.5 20.5q2 9 4 22t6 30q7 34 25 34q9 0 16 -6.5t12.5 -15.5t8 -18.5t2.5 -15.5l-1 -9v0z" />
    <glyph glyph-name="v" unicode="v" horiz-adv-x="292" 
d="M12 300q0 13 15.5 22t30.5 9q14 0 22 -6.5t8 -24.5l-4 -103q0 -63 9 -97t25 -34q26 0 52 84q26 87 26 206q0 12 5 21t18 11q17 0 17 -24q0 -138 -48 -265q-46 -127 -97 -127q-34 0 -56.5 80t-22.5 248z" />
    <glyph glyph-name="w" unicode="w" horiz-adv-x="444" 
d="M192 272q0 14 18 32t34 18t16 -22l-4 -103q0 -63 9 -97t25 -34q26 0 52 84q26 87 26 206q0 12 5 21t18 11q17 0 17 -24q0 -150 -43 -260q-42 -111 -92 -111q-33 0 -57 59l-42 -37q-46 -52 -74 -52q-36 0 -54 61q-18 62 -24 133q-6 72 -6 175q1 8 7 14.5t13.5 11t15 6.5
t12.5 1q12 0 18 -6.5t6 -26.5q-7 -47 -10.5 -86.5t-3.5 -72.5q0 -64 12 -98.5t32 -34.5q27 0 50 63q24 64 24 169z" />
    <glyph glyph-name="x" unicode="x" horiz-adv-x="317" 
d="M8 320q0 20 9 29.5t25 11.5q15 0 26 -11q12 -9 12 -26q0 -138 34 -138q33 0 63 93t53 93q16 0 16 -22q0 -16 -19 -53l-46 -95q-25 -43 -41 -54q-15 -11 -15 -19q0 -26 26 -61q25 -33 63 -33q12 0 23 4l21 4q9 0 10 -7q0 -4 -4.5 -11.5t-14 -14.5t-23 -12.5t-31.5 -5.5
q-31 0 -65 31q-31 31 -46 25l-23 -13q-12 -12 -21 -36q-6 -24 -14 -24q-11 0 -22 17q-10 16 -4 24q17 14 31.5 33.5t24.5 46.5l-24 81q-24 78 -24 143z" />
    <glyph glyph-name="y" unicode="y" horiz-adv-x="331" 
d="M126 -6q-56 0 -80 53q-22 54 -22 136l3 74l8 69q4 33 19 33q6 0 12.5 -4.5t11.5 -11t8 -14t2 -13.5q-12 -75 -12 -131q0 -69 14.5 -105.5t35.5 -36.5q29 0 55 77q27 78 27 220q0 26 18 26q12 0 27 -15.5t15 -34.5q0 -148 1.5 -234t5.5 -112l8 -71q0 -73 -40.5 -111.5
t-103.5 -38.5q-24 -1 -51 6.5t-49 18t-35.5 22t-11.5 18.5q0 15 20 15q11 0 36 -13q26 -14 76 -14q45 0 73.5 24.5t28.5 81.5l-1 15l-5 40q-1 12 -1.5 19t-1.5 12.5l-2 10.5t-4 13q-5 17 -11 17q-3 -2 -7 -5.5t-16 -17.5q-10 -13 -29 -16z" />
    <glyph glyph-name="z" unicode="z" horiz-adv-x="334" 
d="M23 200q-11 -13 -18 -14q-5 7 -5 11q0 19 12 54q12 34 63 73q52 40 126 40q62 0 62 -57q0 -25 -12 -56t-40 -79q-6 -10 4 -20l24 -20q25 -6 40 -18q15 -9 15 -21q0 -10 -19 -17l3 -22l1 -35q0 -94 -39 -170q-39 -77 -100 -86l-75 -8q-36 0 -54 20t-18 54q0 36 18 83
q20 49 34 69q16 24 17 28q0 11 -12 23l-19 16l5 32q0 8 -1 11q2 2 3 2.5t2 1.5l46 16q43 15 78 53q36 39 36 74q0 21 -13 33.5t-34 12.5q-26 0 -60 -19.5t-70 -64.5zM43 -188q15 -3 29 -3q64 0 109 55q46 55 46 120q0 29 -12.5 52.5t-34.5 23.5q-42 0 -94 -88
q-53 -89 -53 -139q0 -20 10 -21z" />
    <glyph glyph-name="cent" unicode="&#xa2;" horiz-adv-x="316" 
d="M115 581q0 19 27 19q23 0 23 -19l-6 -65l-2 -78l4 -151l4 -148q0 -6 -9 -9t-20 -3q-27 0 -28 12l-1 87v94l4 155q0 56 1 78t3 28zM259 432q0 -16 -8.5 -26t-20.5 -10q-9 0 -15.5 6t-8.5 22q0 46 -16 71t-39 25q-16 0 -31 -12t-27 -34.5t-19 -56t-7 -75.5q0 -18 -1 -21
q0 -59 27 -95q28 -34 64 -34q26 0 42 19t16 57q0 29 12 29q9 0 15.5 -11.5t8.5 -29.5q0 -48 -25 -73.5t-63 -25.5q-55 0 -98 51q-44 52 -44 137q0 127 38 177t85 50q22 0 30 -8q40 -22 63 -41q22 -18 22 -91z" />
    <glyph glyph-name="yen" unicode="&#xa5;" horiz-adv-x="724" 
d="M340 572q17 0 35 -79l37 -165l76 3l75 2l72 -2q31 0 33 -11q3 -17 -99 -69q-102 -51 -105 -59q-3 -10 34 -117q37 -108 30 -115q-14 -8 -93 67q-78 75 -95 77q-14 0 -100 -79q-86 -78 -100 -69q-10 6 44 117q54 112 52 123l-148 74q-59 32 -56 50q2 6 18 10q16 3 43 3
l68 -3l86 -5q15 0 21 3l40 172q16 72 32 72z" />
    <glyph glyph-name="Ecircumflex" unicode="&#xca;" horiz-adv-x="250" 
 />
    <glyph glyph-name="Ntilde" unicode="&#xd1;" horiz-adv-x="692" 
d="M111 307l80 -1h196l237 2q15 0 15 -26q0 -25 -15 -26h-580q-15 0 -15 27q0 23 14 25z" />
    <glyph glyph-name="Ograve" unicode="&#xd2;" horiz-adv-x="374" 
d="M257 640q0 -15 -7 -28l-13 -24q0 -7 28 -23q29 -14 29 -36q0 -9 -5.5 -18.5t-14.5 -17t-20 -12.5t-21 -5q-31 0 -43.5 11t-12.5 31q0 36 40 88zM89 640q0 -15 -7 -28l-13 -24q0 -7 28 -23q29 -14 29 -36q0 -9 -5.5 -18.5t-14.5 -17t-20 -12.5t-21 -5q-31 0 -43.5 11
t-12.5 31q0 36 40 88z" />
    <glyph glyph-name="Oacute" unicode="&#xd3;" horiz-adv-x="374" 
d="M79 481q1 12 3 19t4.5 12.5t5.5 10l7 10.5q0 7 -29 22q-28 16 -28 37q0 9 5.5 18t14.5 16.5t19.5 12.5t21.5 5q31 0 43.5 -11t12.5 -31q0 -36 -40 -88zM247 481q1 12 3 19t4.5 12.5t5.5 10l7 10.5q0 7 -29 22q-28 16 -28 37q0 9 5.5 18t14.5 16.5t19.5 12.5t21.5 5
q31 0 43.5 -11t12.5 -31q0 -36 -40 -88z" />
    <glyph glyph-name="Ocircumflex" unicode="&#xd4;" horiz-adv-x="215" 
d="M116 639q0 -15 -7 -28l-13 -24q0 -7 29 -22t29 -37q0 -19 -19.5 -35.5t-41.5 -16.5q-31 0 -43.5 11t-12.5 31q0 47 53 105l26 16v0z" />
    <glyph glyph-name="Otilde" unicode="&#xd5;" horiz-adv-x="215" 
d="M79 481q1 12 3 19t4.5 12.5t5.5 10l7 10.5q0 7 -29 22q-28 16 -28 37q0 9 5.5 18t14.5 16.5t19.5 12.5t21.5 5q31 0 43.5 -11t12.5 -31q0 -36 -40 -88l-40 -33v0z" />
    <glyph glyph-name="oacute" unicode="&#xf3;" horiz-adv-x="1000" 
d="M196 584q0 9 9 17q9 6 22 7q13 0 18 -8q7 -7 7 -24l-5 -113l-4 -93l4 -265l5 -181q0 -9 -8.5 -12.5t-23.5 -5.5q-13 0 -23 5q-9 3 -9 13l8 660v0z" />
    <glyph glyph-name="uni0000" horiz-adv-x="0" 
 />
    <glyph glyph-name="uni0000" horiz-adv-x="0" 
 />
    <glyph glyph-name="glyph90" horiz-adv-x="250" 
 />
    <glyph glyph-name="glyph91" horiz-adv-x="250" 
 />
  </font>
</defs>
</svg>
